<mxfile host="app.diagrams.net" agent="Mozilla/5.0 (Windows NT 10.0; Win64; x64) AppleWebKit/537.36 (KHTML, like Gecko) Chrome/130.0.0.0 Safari/537.36" version="24.8.3">
  <diagram id="9sQmnJu0lc5YC46oBtRC" name="bsa21_2">
    <mxGraphModel dx="1655" dy="905" grid="1" gridSize="10" guides="1" tooltips="1" connect="1" arrows="1" fold="1" page="1" pageScale="1" pageWidth="1654" pageHeight="1169" math="0" shadow="0">
      <root>
        <mxCell id="0" />
        <mxCell id="1" parent="0" />
        <mxCell id="m1XFAZKYXhFZ4w68f1Fo-2" value="&lt;font style=&quot;font-size: 10px;&quot;&gt;каталог&lt;/font&gt;" style="rounded=1;whiteSpace=wrap;html=1;verticalAlign=top;" parent="1" vertex="1">
          <mxGeometry x="85" y="364.5" width="155" height="310" as="geometry" />
        </mxCell>
        <mxCell id="snO9IdEiVwamC3HxAGcw-32" value="товар 1" style="rounded=1;whiteSpace=wrap;html=1;" parent="1" vertex="1">
          <mxGeometry x="94.5" y="394.5" width="56" height="70" as="geometry" />
        </mxCell>
        <mxCell id="tuDCf-i1AgGtZpwe7FlV-100" value="" style="ellipse;whiteSpace=wrap;html=1;aspect=fixed;strokeWidth=1;strokeColor=#00FA08;" parent="1" vertex="1">
          <mxGeometry x="129.5" y="400" width="20" height="20" as="geometry" />
        </mxCell>
        <mxCell id="snO9IdEiVwamC3HxAGcw-91" value="&lt;span style=&quot;font-size: 10px;&quot;&gt;избранное&amp;nbsp;&lt;/span&gt;" style="rounded=1;whiteSpace=wrap;html=1;verticalAlign=top;" parent="1" vertex="1">
          <mxGeometry x="1095" y="360" width="155" height="310" as="geometry" />
        </mxCell>
        <mxCell id="tuDCf-i1AgGtZpwe7FlV-94" value="" style="rounded=1;whiteSpace=wrap;html=1;strokeColor=#00FA08;" parent="1" vertex="1">
          <mxGeometry x="1103.5" y="646.13" width="30" height="16.75" as="geometry" />
        </mxCell>
        <mxCell id="tuDCf-i1AgGtZpwe7FlV-66" value="&lt;span style=&quot;font-size: 10px;&quot;&gt;карточка товара&lt;/span&gt;" style="rounded=1;whiteSpace=wrap;html=1;verticalAlign=top;" parent="1" vertex="1">
          <mxGeometry x="675" y="364.5" width="155" height="310" as="geometry" />
        </mxCell>
        <mxCell id="tuDCf-i1AgGtZpwe7FlV-82" value="" style="ellipse;whiteSpace=wrap;html=1;aspect=fixed;strokeWidth=1;strokeColor=#00FA08;" parent="1" vertex="1">
          <mxGeometry x="795.5" y="639.5" width="30" height="30" as="geometry" />
        </mxCell>
        <mxCell id="tuDCf-i1AgGtZpwe7FlV-35" value="&lt;span style=&quot;font-size: 10px;&quot;&gt;карточка товара&lt;/span&gt;" style="rounded=1;whiteSpace=wrap;html=1;verticalAlign=top;" parent="1" vertex="1">
          <mxGeometry x="484.5" y="364.5" width="155" height="310" as="geometry" />
        </mxCell>
        <mxCell id="tuDCf-i1AgGtZpwe7FlV-64" value="товар 3" style="rounded=1;whiteSpace=wrap;html=1;" parent="1" vertex="1">
          <mxGeometry x="486.9" y="391.13" width="150.2" height="187.75" as="geometry" />
        </mxCell>
        <mxCell id="tuDCf-i1AgGtZpwe7FlV-81" value="" style="ellipse;whiteSpace=wrap;html=1;aspect=fixed;strokeWidth=1;strokeColor=#00FA08;" parent="1" vertex="1">
          <mxGeometry x="601" y="394.5" width="30" height="30" as="geometry" />
        </mxCell>
        <mxCell id="snO9IdEiVwamC3HxAGcw-37" value="&lt;font style=&quot;font-size: 10px;&quot;&gt;каталог&lt;/font&gt;" style="rounded=1;whiteSpace=wrap;html=1;verticalAlign=top;" parent="1" vertex="1">
          <mxGeometry x="285" y="364.5" width="155" height="310" as="geometry" />
        </mxCell>
        <mxCell id="tuDCf-i1AgGtZpwe7FlV-63" value="" style="rounded=1;whiteSpace=wrap;html=1;strokeColor=#00fa08;" parent="1" vertex="1">
          <mxGeometry x="287.5" y="466.75" width="70" height="85.5" as="geometry" />
        </mxCell>
        <mxCell id="snO9IdEiVwamC3HxAGcw-59" value="&lt;span style=&quot;font-size: 10px;&quot;&gt;избранное&amp;nbsp;&lt;/span&gt;" style="rounded=1;whiteSpace=wrap;html=1;verticalAlign=top;" parent="1" vertex="1">
          <mxGeometry x="885" y="364.5" width="155" height="310" as="geometry" />
        </mxCell>
        <mxCell id="snO9IdEiVwamC3HxAGcw-60" value="товар 4" style="rounded=1;whiteSpace=wrap;html=1;" parent="1" vertex="1">
          <mxGeometry x="974.5" y="474.5" width="56" height="70" as="geometry" />
        </mxCell>
        <mxCell id="snO9IdEiVwamC3HxAGcw-108" value="" style="ellipse;whiteSpace=wrap;html=1;aspect=fixed;strokeWidth=1;strokeColor=#00FA08;" parent="1" vertex="1">
          <mxGeometry x="1010" y="479.5" width="20" height="20" as="geometry" />
        </mxCell>
        <mxCell id="snO9IdEiVwamC3HxAGcw-29" value="товар 4" style="rounded=1;whiteSpace=wrap;html=1;" parent="1" vertex="1">
          <mxGeometry x="174.5" y="474.5" width="56" height="70" as="geometry" />
        </mxCell>
        <mxCell id="snO9IdEiVwamC3HxAGcw-18" value="" style="verticalLabelPosition=bottom;verticalAlign=top;html=1;shape=mxgraph.basic.heart" parent="1" vertex="1">
          <mxGeometry x="211" y="644.5" width="20" height="20" as="geometry" />
        </mxCell>
        <mxCell id="snO9IdEiVwamC3HxAGcw-24" value="товар 5" style="rounded=1;whiteSpace=wrap;html=1;" parent="1" vertex="1">
          <mxGeometry x="95" y="554.5" width="56" height="70" as="geometry" />
        </mxCell>
        <mxCell id="snO9IdEiVwamC3HxAGcw-25" value="товар 6" style="rounded=1;whiteSpace=wrap;html=1;" parent="1" vertex="1">
          <mxGeometry x="175" y="554.5" width="56" height="70" as="geometry" />
        </mxCell>
        <mxCell id="snO9IdEiVwamC3HxAGcw-26" value="" style="verticalLabelPosition=bottom;verticalAlign=top;html=1;shape=mxgraph.basic.heart" parent="1" vertex="1">
          <mxGeometry x="215" y="564.5" width="10" height="10" as="geometry" />
        </mxCell>
        <mxCell id="snO9IdEiVwamC3HxAGcw-27" value="" style="verticalLabelPosition=bottom;verticalAlign=top;html=1;shape=mxgraph.basic.heart" parent="1" vertex="1">
          <mxGeometry x="135" y="564.5" width="10" height="10" as="geometry" />
        </mxCell>
        <mxCell id="snO9IdEiVwamC3HxAGcw-28" value="товар 3" style="rounded=1;whiteSpace=wrap;html=1;" parent="1" vertex="1">
          <mxGeometry x="94.5" y="474.5" width="56" height="70" as="geometry" />
        </mxCell>
        <mxCell id="snO9IdEiVwamC3HxAGcw-30" value="" style="verticalLabelPosition=bottom;verticalAlign=top;html=1;shape=mxgraph.basic.heart" parent="1" vertex="1">
          <mxGeometry x="214.5" y="484.5" width="10" height="10" as="geometry" />
        </mxCell>
        <mxCell id="snO9IdEiVwamC3HxAGcw-31" value="" style="verticalLabelPosition=bottom;verticalAlign=top;html=1;shape=mxgraph.basic.heart" parent="1" vertex="1">
          <mxGeometry x="134.5" y="484.5" width="10" height="10" as="geometry" />
        </mxCell>
        <mxCell id="snO9IdEiVwamC3HxAGcw-33" value="товар 2" style="rounded=1;whiteSpace=wrap;html=1;" parent="1" vertex="1">
          <mxGeometry x="174.5" y="394.5" width="56" height="70" as="geometry" />
        </mxCell>
        <mxCell id="snO9IdEiVwamC3HxAGcw-34" value="" style="verticalLabelPosition=bottom;verticalAlign=top;html=1;shape=mxgraph.basic.heart" parent="1" vertex="1">
          <mxGeometry x="214.5" y="404.5" width="10" height="10" as="geometry" />
        </mxCell>
        <mxCell id="snO9IdEiVwamC3HxAGcw-35" value="" style="verticalLabelPosition=bottom;verticalAlign=top;html=1;shape=mxgraph.basic.heart" parent="1" vertex="1">
          <mxGeometry x="134.5" y="404.5" width="10" height="10" as="geometry" />
        </mxCell>
        <mxCell id="snO9IdEiVwamC3HxAGcw-38" value="" style="verticalLabelPosition=bottom;verticalAlign=top;html=1;shape=mxgraph.basic.heart" parent="1" vertex="1">
          <mxGeometry x="605" y="400" width="20" height="20" as="geometry" />
        </mxCell>
        <mxCell id="snO9IdEiVwamC3HxAGcw-39" value="товар 5" style="rounded=1;whiteSpace=wrap;html=1;" parent="1" vertex="1">
          <mxGeometry x="295" y="554.5" width="56" height="70" as="geometry" />
        </mxCell>
        <mxCell id="snO9IdEiVwamC3HxAGcw-40" value="товар 6" style="rounded=1;whiteSpace=wrap;html=1;" parent="1" vertex="1">
          <mxGeometry x="375" y="554.5" width="56" height="70" as="geometry" />
        </mxCell>
        <mxCell id="snO9IdEiVwamC3HxAGcw-41" value="" style="verticalLabelPosition=bottom;verticalAlign=top;html=1;shape=mxgraph.basic.heart" parent="1" vertex="1">
          <mxGeometry x="415" y="564.5" width="10" height="10" as="geometry" />
        </mxCell>
        <mxCell id="snO9IdEiVwamC3HxAGcw-42" value="" style="verticalLabelPosition=bottom;verticalAlign=top;html=1;shape=mxgraph.basic.heart" parent="1" vertex="1">
          <mxGeometry x="335" y="564.5" width="10" height="10" as="geometry" />
        </mxCell>
        <mxCell id="snO9IdEiVwamC3HxAGcw-43" value="товар 3" style="rounded=1;whiteSpace=wrap;html=1;" parent="1" vertex="1">
          <mxGeometry x="294.5" y="474.5" width="56" height="70" as="geometry" />
        </mxCell>
        <mxCell id="snO9IdEiVwamC3HxAGcw-44" value="товар 4" style="rounded=1;whiteSpace=wrap;html=1;" parent="1" vertex="1">
          <mxGeometry x="374.5" y="474.5" width="56" height="70" as="geometry" />
        </mxCell>
        <mxCell id="snO9IdEiVwamC3HxAGcw-45" value="" style="verticalLabelPosition=bottom;verticalAlign=top;html=1;shape=mxgraph.basic.heart;strokeColor=#000000;fillColor=#FFFFFF;" parent="1" vertex="1">
          <mxGeometry x="414.5" y="484.5" width="10" height="10" as="geometry" />
        </mxCell>
        <mxCell id="snO9IdEiVwamC3HxAGcw-46" value="" style="verticalLabelPosition=bottom;verticalAlign=top;html=1;shape=mxgraph.basic.heart" parent="1" vertex="1">
          <mxGeometry x="334.5" y="484.5" width="10" height="10" as="geometry" />
        </mxCell>
        <mxCell id="snO9IdEiVwamC3HxAGcw-47" value="товар 1" style="rounded=1;whiteSpace=wrap;html=1;" parent="1" vertex="1">
          <mxGeometry x="294.5" y="394.5" width="56" height="70" as="geometry" />
        </mxCell>
        <mxCell id="snO9IdEiVwamC3HxAGcw-48" value="товар 2" style="rounded=1;whiteSpace=wrap;html=1;" parent="1" vertex="1">
          <mxGeometry x="374.5" y="394.5" width="56" height="70" as="geometry" />
        </mxCell>
        <mxCell id="snO9IdEiVwamC3HxAGcw-49" value="" style="verticalLabelPosition=bottom;verticalAlign=top;html=1;shape=mxgraph.basic.heart" parent="1" vertex="1">
          <mxGeometry x="414.5" y="404.5" width="10" height="10" as="geometry" />
        </mxCell>
        <mxCell id="snO9IdEiVwamC3HxAGcw-50" value="" style="verticalLabelPosition=bottom;verticalAlign=top;html=1;shape=mxgraph.basic.heart;fillColor=#FF66FF;" parent="1" vertex="1">
          <mxGeometry x="334.5" y="404.5" width="10" height="10" as="geometry" />
        </mxCell>
        <mxCell id="snO9IdEiVwamC3HxAGcw-63" value="товар 5" style="rounded=1;whiteSpace=wrap;html=1;" parent="1" vertex="1">
          <mxGeometry x="895" y="554.5" width="56" height="70" as="geometry" />
        </mxCell>
        <mxCell id="snO9IdEiVwamC3HxAGcw-64" value="товар 6" style="rounded=1;whiteSpace=wrap;html=1;" parent="1" vertex="1">
          <mxGeometry x="975" y="554.5" width="56" height="70" as="geometry" />
        </mxCell>
        <mxCell id="snO9IdEiVwamC3HxAGcw-65" value="" style="verticalLabelPosition=bottom;verticalAlign=top;html=1;shape=mxgraph.basic.heart;fillColor=#FF66FF;" parent="1" vertex="1">
          <mxGeometry x="1015" y="564.5" width="10" height="10" as="geometry" />
        </mxCell>
        <mxCell id="snO9IdEiVwamC3HxAGcw-66" value="" style="verticalLabelPosition=bottom;verticalAlign=top;html=1;shape=mxgraph.basic.heart;fillColor=#FF66FF;" parent="1" vertex="1">
          <mxGeometry x="935" y="564.5" width="10" height="10" as="geometry" />
        </mxCell>
        <mxCell id="snO9IdEiVwamC3HxAGcw-67" value="товар 3" style="rounded=1;whiteSpace=wrap;html=1;" parent="1" vertex="1">
          <mxGeometry x="894.5" y="474.5" width="56" height="70" as="geometry" />
        </mxCell>
        <mxCell id="snO9IdEiVwamC3HxAGcw-68" value="" style="verticalLabelPosition=bottom;verticalAlign=top;html=1;shape=mxgraph.basic.heart;fillColor=#FF66FF;" parent="1" vertex="1">
          <mxGeometry x="1014.5" y="484.5" width="10" height="10" as="geometry" />
        </mxCell>
        <mxCell id="snO9IdEiVwamC3HxAGcw-69" value="" style="verticalLabelPosition=bottom;verticalAlign=top;html=1;shape=mxgraph.basic.heart;strokeColor=#000000;fillColor=#FF66FF;" parent="1" vertex="1">
          <mxGeometry x="934.5" y="484.5" width="10" height="10" as="geometry" />
        </mxCell>
        <mxCell id="snO9IdEiVwamC3HxAGcw-70" value="товар 1" style="rounded=1;whiteSpace=wrap;html=1;" parent="1" vertex="1">
          <mxGeometry x="894.5" y="394.5" width="56" height="70" as="geometry" />
        </mxCell>
        <mxCell id="snO9IdEiVwamC3HxAGcw-71" value="товар 2" style="rounded=1;whiteSpace=wrap;html=1;" parent="1" vertex="1">
          <mxGeometry x="974.5" y="394.5" width="56" height="70" as="geometry" />
        </mxCell>
        <mxCell id="snO9IdEiVwamC3HxAGcw-72" value="" style="verticalLabelPosition=bottom;verticalAlign=top;html=1;shape=mxgraph.basic.heart;fillColor=#FF66FF;" parent="1" vertex="1">
          <mxGeometry x="1014.5" y="404.5" width="10" height="10" as="geometry" />
        </mxCell>
        <mxCell id="snO9IdEiVwamC3HxAGcw-73" value="" style="verticalLabelPosition=bottom;verticalAlign=top;html=1;shape=mxgraph.basic.heart;fillColor=#FF66FF;" parent="1" vertex="1">
          <mxGeometry x="934.5" y="404.5" width="10" height="10" as="geometry" />
        </mxCell>
        <mxCell id="snO9IdEiVwamC3HxAGcw-92" value="товар 5" style="rounded=1;whiteSpace=wrap;html=1;" parent="1" vertex="1">
          <mxGeometry x="1184.5" y="470" width="56" height="70" as="geometry" />
        </mxCell>
        <mxCell id="snO9IdEiVwamC3HxAGcw-95" value="товар 6" style="rounded=1;whiteSpace=wrap;html=1;" parent="1" vertex="1">
          <mxGeometry x="1105" y="550" width="56" height="70" as="geometry" />
        </mxCell>
        <mxCell id="snO9IdEiVwamC3HxAGcw-98" value="" style="verticalLabelPosition=bottom;verticalAlign=top;html=1;shape=mxgraph.basic.heart;fillColor=#FF66FF;" parent="1" vertex="1">
          <mxGeometry x="1145" y="560" width="10" height="10" as="geometry" />
        </mxCell>
        <mxCell id="snO9IdEiVwamC3HxAGcw-99" value="товар 3" style="rounded=1;whiteSpace=wrap;html=1;" parent="1" vertex="1">
          <mxGeometry x="1104.5" y="470" width="56" height="70" as="geometry" />
        </mxCell>
        <mxCell id="snO9IdEiVwamC3HxAGcw-100" value="" style="verticalLabelPosition=bottom;verticalAlign=top;html=1;shape=mxgraph.basic.heart;fillColor=#FF66FF;" parent="1" vertex="1">
          <mxGeometry x="1224.5" y="480" width="10" height="10" as="geometry" />
        </mxCell>
        <mxCell id="snO9IdEiVwamC3HxAGcw-101" value="" style="verticalLabelPosition=bottom;verticalAlign=top;html=1;shape=mxgraph.basic.heart;fillColor=#FF66FF;" parent="1" vertex="1">
          <mxGeometry x="1144.5" y="480" width="10" height="10" as="geometry" />
        </mxCell>
        <mxCell id="snO9IdEiVwamC3HxAGcw-102" value="товар 1" style="rounded=1;whiteSpace=wrap;html=1;" parent="1" vertex="1">
          <mxGeometry x="1104.5" y="390" width="56" height="70" as="geometry" />
        </mxCell>
        <mxCell id="snO9IdEiVwamC3HxAGcw-103" value="товар 2" style="rounded=1;whiteSpace=wrap;html=1;" parent="1" vertex="1">
          <mxGeometry x="1184.5" y="390" width="56" height="70" as="geometry" />
        </mxCell>
        <mxCell id="snO9IdEiVwamC3HxAGcw-104" value="" style="verticalLabelPosition=bottom;verticalAlign=top;html=1;shape=mxgraph.basic.heart;fillColor=#FF66FF;" parent="1" vertex="1">
          <mxGeometry x="1224.5" y="400" width="10" height="10" as="geometry" />
        </mxCell>
        <mxCell id="snO9IdEiVwamC3HxAGcw-105" value="" style="verticalLabelPosition=bottom;verticalAlign=top;html=1;shape=mxgraph.basic.heart;fillColor=#FF66FF;" parent="1" vertex="1">
          <mxGeometry x="1144.5" y="400" width="10" height="10" as="geometry" />
        </mxCell>
        <mxCell id="tuDCf-i1AgGtZpwe7FlV-1" value="&lt;span style=&quot;font-size: 6px;&quot;&gt;Корзина&lt;/span&gt;" style="rounded=1;whiteSpace=wrap;html=1;verticalAlign=middle;" parent="1" vertex="1">
          <mxGeometry x="175" y="647" width="27" height="15" as="geometry" />
        </mxCell>
        <mxCell id="tuDCf-i1AgGtZpwe7FlV-5" value="&lt;span style=&quot;font-size: 6px;&quot;&gt;Поиск&lt;/span&gt;" style="rounded=1;whiteSpace=wrap;html=1;verticalAlign=middle;" parent="1" vertex="1">
          <mxGeometry x="134.5" y="647" width="27" height="15" as="geometry" />
        </mxCell>
        <mxCell id="tuDCf-i1AgGtZpwe7FlV-6" value="&lt;span style=&quot;font-size: 6px;&quot;&gt;Home&lt;/span&gt;" style="rounded=1;whiteSpace=wrap;html=1;verticalAlign=middle;" parent="1" vertex="1">
          <mxGeometry x="95" y="647" width="27" height="15" as="geometry" />
        </mxCell>
        <mxCell id="tuDCf-i1AgGtZpwe7FlV-67" value="товар 3" style="rounded=1;whiteSpace=wrap;html=1;" parent="1" vertex="1">
          <mxGeometry x="677.4" y="391.13" width="150.2" height="187.75" as="geometry" />
        </mxCell>
        <mxCell id="tuDCf-i1AgGtZpwe7FlV-68" value="" style="verticalLabelPosition=bottom;verticalAlign=top;html=1;shape=mxgraph.basic.heart;fillColor=#FF66FF;" parent="1" vertex="1">
          <mxGeometry x="795.5" y="400" width="20" height="20" as="geometry" />
        </mxCell>
        <mxCell id="tuDCf-i1AgGtZpwe7FlV-69" value="" style="verticalLabelPosition=bottom;verticalAlign=top;html=1;shape=mxgraph.basic.heart" parent="1" vertex="1">
          <mxGeometry x="411" y="644.5" width="20" height="20" as="geometry" />
        </mxCell>
        <mxCell id="tuDCf-i1AgGtZpwe7FlV-70" value="&lt;span style=&quot;font-size: 6px;&quot;&gt;Корзина&lt;/span&gt;" style="rounded=1;whiteSpace=wrap;html=1;verticalAlign=middle;" parent="1" vertex="1">
          <mxGeometry x="375" y="647" width="27" height="15" as="geometry" />
        </mxCell>
        <mxCell id="tuDCf-i1AgGtZpwe7FlV-71" value="&lt;span style=&quot;font-size: 6px;&quot;&gt;Поиск&lt;/span&gt;" style="rounded=1;whiteSpace=wrap;html=1;verticalAlign=middle;" parent="1" vertex="1">
          <mxGeometry x="334.5" y="647" width="27" height="15" as="geometry" />
        </mxCell>
        <mxCell id="tuDCf-i1AgGtZpwe7FlV-72" value="&lt;span style=&quot;font-size: 6px;&quot;&gt;Home&lt;/span&gt;" style="rounded=1;whiteSpace=wrap;html=1;verticalAlign=middle;" parent="1" vertex="1">
          <mxGeometry x="295" y="647" width="27" height="15" as="geometry" />
        </mxCell>
        <mxCell id="tuDCf-i1AgGtZpwe7FlV-73" value="" style="verticalLabelPosition=bottom;verticalAlign=top;html=1;shape=mxgraph.basic.heart" parent="1" vertex="1">
          <mxGeometry x="610" y="644.5" width="20" height="20" as="geometry" />
        </mxCell>
        <mxCell id="tuDCf-i1AgGtZpwe7FlV-74" value="&lt;span style=&quot;font-size: 6px;&quot;&gt;Корзина&lt;/span&gt;" style="rounded=1;whiteSpace=wrap;html=1;verticalAlign=middle;" parent="1" vertex="1">
          <mxGeometry x="574" y="647" width="27" height="15" as="geometry" />
        </mxCell>
        <mxCell id="tuDCf-i1AgGtZpwe7FlV-75" value="&lt;span style=&quot;font-size: 6px;&quot;&gt;Поиск&lt;/span&gt;" style="rounded=1;whiteSpace=wrap;html=1;verticalAlign=middle;" parent="1" vertex="1">
          <mxGeometry x="533.5" y="647" width="27" height="15" as="geometry" />
        </mxCell>
        <mxCell id="tuDCf-i1AgGtZpwe7FlV-76" value="&lt;span style=&quot;font-size: 6px;&quot;&gt;Home&lt;/span&gt;" style="rounded=1;whiteSpace=wrap;html=1;verticalAlign=middle;" parent="1" vertex="1">
          <mxGeometry x="494" y="647" width="27" height="15" as="geometry" />
        </mxCell>
        <mxCell id="tuDCf-i1AgGtZpwe7FlV-77" value="" style="verticalLabelPosition=bottom;verticalAlign=top;html=1;shape=mxgraph.basic.heart" parent="1" vertex="1">
          <mxGeometry x="800.5" y="644.5" width="20" height="20" as="geometry" />
        </mxCell>
        <mxCell id="tuDCf-i1AgGtZpwe7FlV-78" value="&lt;span style=&quot;font-size: 6px;&quot;&gt;Корзина&lt;/span&gt;" style="rounded=1;whiteSpace=wrap;html=1;verticalAlign=middle;" parent="1" vertex="1">
          <mxGeometry x="764.5" y="647" width="27" height="15" as="geometry" />
        </mxCell>
        <mxCell id="tuDCf-i1AgGtZpwe7FlV-79" value="&lt;span style=&quot;font-size: 6px;&quot;&gt;Поиск&lt;/span&gt;" style="rounded=1;whiteSpace=wrap;html=1;verticalAlign=middle;" parent="1" vertex="1">
          <mxGeometry x="724" y="647" width="27" height="15" as="geometry" />
        </mxCell>
        <mxCell id="tuDCf-i1AgGtZpwe7FlV-80" value="&lt;span style=&quot;font-size: 6px;&quot;&gt;Home&lt;/span&gt;" style="rounded=1;whiteSpace=wrap;html=1;verticalAlign=middle;" parent="1" vertex="1">
          <mxGeometry x="684.5" y="647" width="27" height="15" as="geometry" />
        </mxCell>
        <mxCell id="tuDCf-i1AgGtZpwe7FlV-83" value="" style="verticalLabelPosition=bottom;verticalAlign=top;html=1;shape=mxgraph.basic.heart;fillColor=#FF66FF;" parent="1" vertex="1">
          <mxGeometry x="1010" y="644.5" width="20" height="20" as="geometry" />
        </mxCell>
        <mxCell id="tuDCf-i1AgGtZpwe7FlV-84" value="&lt;span style=&quot;font-size: 6px;&quot;&gt;Корзина&lt;/span&gt;" style="rounded=1;whiteSpace=wrap;html=1;verticalAlign=middle;" parent="1" vertex="1">
          <mxGeometry x="974" y="647" width="27" height="15" as="geometry" />
        </mxCell>
        <mxCell id="tuDCf-i1AgGtZpwe7FlV-85" value="&lt;span style=&quot;font-size: 6px;&quot;&gt;Поиск&lt;/span&gt;" style="rounded=1;whiteSpace=wrap;html=1;verticalAlign=middle;" parent="1" vertex="1">
          <mxGeometry x="933.5" y="647" width="27" height="15" as="geometry" />
        </mxCell>
        <mxCell id="tuDCf-i1AgGtZpwe7FlV-86" value="&lt;span style=&quot;font-size: 6px;&quot;&gt;Home&lt;/span&gt;" style="rounded=1;whiteSpace=wrap;html=1;verticalAlign=middle;" parent="1" vertex="1">
          <mxGeometry x="894" y="647" width="27" height="15" as="geometry" />
        </mxCell>
        <mxCell id="tuDCf-i1AgGtZpwe7FlV-87" value="" style="verticalLabelPosition=bottom;verticalAlign=top;html=1;shape=mxgraph.basic.heart;fillColor=#FF66FF;" parent="1" vertex="1">
          <mxGeometry x="1221" y="644.5" width="20" height="20" as="geometry" />
        </mxCell>
        <mxCell id="tuDCf-i1AgGtZpwe7FlV-88" value="&lt;span style=&quot;font-size: 6px;&quot;&gt;Корзина&lt;/span&gt;" style="rounded=1;whiteSpace=wrap;html=1;verticalAlign=middle;" parent="1" vertex="1">
          <mxGeometry x="1185" y="647" width="27" height="15" as="geometry" />
        </mxCell>
        <mxCell id="tuDCf-i1AgGtZpwe7FlV-89" value="&lt;span style=&quot;font-size: 6px;&quot;&gt;Поиск&lt;/span&gt;" style="rounded=1;whiteSpace=wrap;html=1;verticalAlign=middle;" parent="1" vertex="1">
          <mxGeometry x="1144.5" y="647" width="27" height="15" as="geometry" />
        </mxCell>
        <mxCell id="tuDCf-i1AgGtZpwe7FlV-90" value="&lt;span style=&quot;font-size: 6px;&quot;&gt;Home&lt;/span&gt;" style="rounded=1;whiteSpace=wrap;html=1;verticalAlign=middle;" parent="1" vertex="1">
          <mxGeometry x="1105" y="647" width="27" height="15" as="geometry" />
        </mxCell>
        <mxCell id="tuDCf-i1AgGtZpwe7FlV-91" value="" style="endArrow=classic;html=1;rounded=0;exitX=0.037;exitY=0.042;exitDx=0;exitDy=0;exitPerimeter=0;entryX=0.263;entryY=-0.001;entryDx=0;entryDy=0;entryPerimeter=0;" parent="1" source="tuDCf-i1AgGtZpwe7FlV-63" target="tuDCf-i1AgGtZpwe7FlV-35" edge="1">
          <mxGeometry width="50" height="50" relative="1" as="geometry">
            <mxPoint x="294" y="470" as="sourcePoint" />
            <mxPoint x="615" y="270" as="targetPoint" />
            <Array as="points">
              <mxPoint x="290" y="270" />
              <mxPoint x="525" y="270" />
            </Array>
          </mxGeometry>
        </mxCell>
        <mxCell id="tuDCf-i1AgGtZpwe7FlV-92" value="" style="endArrow=classic;html=1;rounded=0;exitX=0.467;exitY=0.003;exitDx=0;exitDy=0;exitPerimeter=0;entryX=0.25;entryY=0;entryDx=0;entryDy=0;" parent="1" source="tuDCf-i1AgGtZpwe7FlV-81" target="tuDCf-i1AgGtZpwe7FlV-66" edge="1">
          <mxGeometry width="50" height="50" relative="1" as="geometry">
            <mxPoint x="615" y="394.5" as="sourcePoint" />
            <mxPoint x="615" y="270" as="targetPoint" />
            <Array as="points">
              <mxPoint x="615" y="280" />
              <mxPoint x="715" y="280" />
            </Array>
          </mxGeometry>
        </mxCell>
        <mxCell id="tuDCf-i1AgGtZpwe7FlV-93" value="" style="endArrow=classic;html=1;rounded=0;exitX=0.5;exitY=1;exitDx=0;exitDy=0;entryX=0.5;entryY=1;entryDx=0;entryDy=0;" parent="1" source="tuDCf-i1AgGtZpwe7FlV-82" target="snO9IdEiVwamC3HxAGcw-59" edge="1">
          <mxGeometry width="50" height="50" relative="1" as="geometry">
            <mxPoint x="800.5" y="790" as="sourcePoint" />
            <mxPoint x="975" y="740" as="targetPoint" />
            <Array as="points">
              <mxPoint x="811" y="740" />
              <mxPoint x="963" y="740" />
            </Array>
          </mxGeometry>
        </mxCell>
        <mxCell id="tuDCf-i1AgGtZpwe7FlV-99" value="&lt;font style=&quot;font-size: 12px;&quot;&gt;6. Возврат в главное меню&lt;/font&gt;" style="text;html=1;align=center;verticalAlign=middle;resizable=0;points=[];autosize=1;strokeColor=none;fillColor=none;" parent="1" vertex="1">
          <mxGeometry x="440" y="800" width="170" height="30" as="geometry" />
        </mxCell>
        <mxCell id="tuDCf-i1AgGtZpwe7FlV-102" value="" style="endArrow=classic;html=1;rounded=0;exitX=0.5;exitY=0;exitDx=0;exitDy=0;entryX=0.25;entryY=0;entryDx=0;entryDy=0;" parent="1" source="tuDCf-i1AgGtZpwe7FlV-100" target="snO9IdEiVwamC3HxAGcw-37" edge="1">
          <mxGeometry width="50" height="50" relative="1" as="geometry">
            <mxPoint x="124.5" y="330" as="sourcePoint" />
            <mxPoint x="174.5" y="280" as="targetPoint" />
            <Array as="points">
              <mxPoint x="140" y="330" />
              <mxPoint x="324" y="330" />
            </Array>
          </mxGeometry>
        </mxCell>
        <mxCell id="tuDCf-i1AgGtZpwe7FlV-103" value="&lt;div&gt;1. При нажатии, кнопка меняет цвет,&amp;nbsp;&lt;/div&gt;&lt;div&gt;и товар добавляется в избранное&lt;/div&gt;" style="text;html=1;align=center;verticalAlign=middle;resizable=0;points=[];autosize=1;strokeColor=none;fillColor=none;" parent="1" vertex="1">
          <mxGeometry x="60" y="290" width="230" height="40" as="geometry" />
        </mxCell>
        <mxCell id="tuDCf-i1AgGtZpwe7FlV-104" value="2. При нажатии, открывается карточка товара" style="text;html=1;align=center;verticalAlign=middle;resizable=0;points=[];autosize=1;strokeColor=none;fillColor=none;" parent="1" vertex="1">
          <mxGeometry x="270" y="240" width="280" height="30" as="geometry" />
        </mxCell>
        <mxCell id="tuDCf-i1AgGtZpwe7FlV-105" value="&lt;div&gt;3. При нажатии, кнопка меняет цвет,&amp;nbsp;&lt;/div&gt;&lt;div&gt;и товар добавляется в избранное&lt;/div&gt;" style="text;html=1;align=center;verticalAlign=middle;resizable=0;points=[];autosize=1;strokeColor=none;fillColor=none;" parent="1" vertex="1">
          <mxGeometry x="575.5" y="240" width="230" height="40" as="geometry" />
        </mxCell>
        <mxCell id="tuDCf-i1AgGtZpwe7FlV-106" value="&lt;div&gt;4. При нажатии, кнопка меняет цвет,&amp;nbsp;&lt;/div&gt;&lt;div&gt;и переходит в раздел избранное&lt;/div&gt;" style="text;html=1;align=center;verticalAlign=middle;resizable=0;points=[];autosize=1;strokeColor=none;fillColor=none;" parent="1" vertex="1">
          <mxGeometry x="776" y="740" width="230" height="40" as="geometry" />
        </mxCell>
        <mxCell id="tuDCf-i1AgGtZpwe7FlV-108" value="" style="endArrow=classic;html=1;rounded=0;exitX=0.952;exitY=0.267;exitDx=0;exitDy=0;exitPerimeter=0;entryX=0.75;entryY=0;entryDx=0;entryDy=0;" parent="1" source="snO9IdEiVwamC3HxAGcw-108" target="snO9IdEiVwamC3HxAGcw-91" edge="1">
          <mxGeometry width="50" height="50" relative="1" as="geometry">
            <mxPoint x="1030" y="484.5" as="sourcePoint" />
            <mxPoint x="1205" y="290" as="targetPoint" />
            <Array as="points">
              <mxPoint x="1029" y="290" />
              <mxPoint x="1211" y="290" />
            </Array>
          </mxGeometry>
        </mxCell>
        <mxCell id="tuDCf-i1AgGtZpwe7FlV-109" value="&lt;div&gt;5. При нажатии, товар удаляется из избранного,&amp;nbsp;&lt;/div&gt;&lt;div&gt;и список товаров сдвигается влево&lt;/div&gt;" style="text;html=1;align=center;verticalAlign=middle;resizable=0;points=[];autosize=1;strokeColor=none;fillColor=none;" parent="1" vertex="1">
          <mxGeometry x="975" y="250" width="300" height="40" as="geometry" />
        </mxCell>
        <mxCell id="tuDCf-i1AgGtZpwe7FlV-110" value="" style="endArrow=classic;html=1;rounded=0;exitX=0.5;exitY=1;exitDx=0;exitDy=0;entryX=0.417;entryY=1;entryDx=0;entryDy=0;entryPerimeter=0;" parent="1" source="tuDCf-i1AgGtZpwe7FlV-90" target="m1XFAZKYXhFZ4w68f1Fo-2" edge="1">
          <mxGeometry width="50" height="50" relative="1" as="geometry">
            <mxPoint x="1103.5" y="785" as="sourcePoint" />
            <mxPoint x="145" y="680" as="targetPoint" />
            <Array as="points">
              <mxPoint x="1119" y="790" />
              <mxPoint x="150" y="790" />
            </Array>
          </mxGeometry>
        </mxCell>
        <mxCell id="cDb_qLqnMA2C5CUkBkNW-1" value="&lt;font style=&quot;font-size: 10px;&quot;&gt;каталог&lt;/font&gt;" style="rounded=1;whiteSpace=wrap;html=1;verticalAlign=top;" vertex="1" parent="1">
          <mxGeometry x="1295" y="364.5" width="155" height="310" as="geometry" />
        </mxCell>
        <mxCell id="cDb_qLqnMA2C5CUkBkNW-2" value="товар 1" style="rounded=1;whiteSpace=wrap;html=1;" vertex="1" parent="1">
          <mxGeometry x="1304.5" y="394.5" width="56" height="70" as="geometry" />
        </mxCell>
        <mxCell id="cDb_qLqnMA2C5CUkBkNW-4" value="товар 4" style="rounded=1;whiteSpace=wrap;html=1;" vertex="1" parent="1">
          <mxGeometry x="1384.5" y="474.5" width="56" height="70" as="geometry" />
        </mxCell>
        <mxCell id="cDb_qLqnMA2C5CUkBkNW-5" value="" style="verticalLabelPosition=bottom;verticalAlign=top;html=1;shape=mxgraph.basic.heart" vertex="1" parent="1">
          <mxGeometry x="1421" y="644.5" width="20" height="20" as="geometry" />
        </mxCell>
        <mxCell id="cDb_qLqnMA2C5CUkBkNW-6" value="товар 5" style="rounded=1;whiteSpace=wrap;html=1;" vertex="1" parent="1">
          <mxGeometry x="1305" y="554.5" width="56" height="70" as="geometry" />
        </mxCell>
        <mxCell id="cDb_qLqnMA2C5CUkBkNW-7" value="товар 6" style="rounded=1;whiteSpace=wrap;html=1;" vertex="1" parent="1">
          <mxGeometry x="1385" y="554.5" width="56" height="70" as="geometry" />
        </mxCell>
        <mxCell id="cDb_qLqnMA2C5CUkBkNW-8" value="" style="verticalLabelPosition=bottom;verticalAlign=top;html=1;shape=mxgraph.basic.heart" vertex="1" parent="1">
          <mxGeometry x="1425" y="564.5" width="10" height="10" as="geometry" />
        </mxCell>
        <mxCell id="cDb_qLqnMA2C5CUkBkNW-9" value="" style="verticalLabelPosition=bottom;verticalAlign=top;html=1;shape=mxgraph.basic.heart" vertex="1" parent="1">
          <mxGeometry x="1345" y="564.5" width="10" height="10" as="geometry" />
        </mxCell>
        <mxCell id="cDb_qLqnMA2C5CUkBkNW-10" value="товар 3" style="rounded=1;whiteSpace=wrap;html=1;" vertex="1" parent="1">
          <mxGeometry x="1304.5" y="474.5" width="56" height="70" as="geometry" />
        </mxCell>
        <mxCell id="cDb_qLqnMA2C5CUkBkNW-11" value="" style="verticalLabelPosition=bottom;verticalAlign=top;html=1;shape=mxgraph.basic.heart" vertex="1" parent="1">
          <mxGeometry x="1424.5" y="484.5" width="10" height="10" as="geometry" />
        </mxCell>
        <mxCell id="cDb_qLqnMA2C5CUkBkNW-12" value="" style="verticalLabelPosition=bottom;verticalAlign=top;html=1;shape=mxgraph.basic.heart" vertex="1" parent="1">
          <mxGeometry x="1344.5" y="484.5" width="10" height="10" as="geometry" />
        </mxCell>
        <mxCell id="cDb_qLqnMA2C5CUkBkNW-13" value="товар 2" style="rounded=1;whiteSpace=wrap;html=1;" vertex="1" parent="1">
          <mxGeometry x="1384.5" y="394.5" width="56" height="70" as="geometry" />
        </mxCell>
        <mxCell id="cDb_qLqnMA2C5CUkBkNW-14" value="" style="verticalLabelPosition=bottom;verticalAlign=top;html=1;shape=mxgraph.basic.heart" vertex="1" parent="1">
          <mxGeometry x="1424.5" y="404.5" width="10" height="10" as="geometry" />
        </mxCell>
        <mxCell id="cDb_qLqnMA2C5CUkBkNW-15" value="" style="verticalLabelPosition=bottom;verticalAlign=top;html=1;shape=mxgraph.basic.heart" vertex="1" parent="1">
          <mxGeometry x="1344.5" y="404.5" width="10" height="10" as="geometry" />
        </mxCell>
        <mxCell id="cDb_qLqnMA2C5CUkBkNW-16" value="&lt;span style=&quot;font-size: 6px;&quot;&gt;Корзина&lt;/span&gt;" style="rounded=1;whiteSpace=wrap;html=1;verticalAlign=middle;" vertex="1" parent="1">
          <mxGeometry x="1385" y="647" width="27" height="15" as="geometry" />
        </mxCell>
        <mxCell id="cDb_qLqnMA2C5CUkBkNW-17" value="&lt;span style=&quot;font-size: 6px;&quot;&gt;Поиск&lt;/span&gt;" style="rounded=1;whiteSpace=wrap;html=1;verticalAlign=middle;" vertex="1" parent="1">
          <mxGeometry x="1344.5" y="647" width="27" height="15" as="geometry" />
        </mxCell>
        <mxCell id="cDb_qLqnMA2C5CUkBkNW-18" value="&lt;span style=&quot;font-size: 6px;&quot;&gt;Home&lt;/span&gt;" style="rounded=1;whiteSpace=wrap;html=1;verticalAlign=middle;" vertex="1" parent="1">
          <mxGeometry x="1305" y="647" width="27" height="15" as="geometry" />
        </mxCell>
        <mxCell id="cDb_qLqnMA2C5CUkBkNW-19" value="&lt;b&gt;Упс! Ошибка! Повторите позднее&lt;/b&gt;" style="rounded=1;whiteSpace=wrap;html=1;" vertex="1" parent="1">
          <mxGeometry x="1312.5" y="439.5" width="120" height="60" as="geometry" />
        </mxCell>
        <mxCell id="cDb_qLqnMA2C5CUkBkNW-20" value="" style="endArrow=classic;html=1;rounded=0;exitX=0;exitY=0.5;exitDx=0;exitDy=0;entryX=0.5;entryY=0;entryDx=0;entryDy=0;" edge="1" parent="1" source="tuDCf-i1AgGtZpwe7FlV-100" target="cDb_qLqnMA2C5CUkBkNW-19">
          <mxGeometry width="50" height="50" relative="1" as="geometry">
            <mxPoint x="35" y="394.5" as="sourcePoint" />
            <mxPoint x="40" y="200" as="targetPoint" />
            <Array as="points">
              <mxPoint x="40" y="410" />
              <mxPoint x="40" y="170" />
              <mxPoint x="1373" y="170" />
            </Array>
          </mxGeometry>
        </mxCell>
        <mxCell id="cDb_qLqnMA2C5CUkBkNW-21" value="7. Если не удалось добавить товар в &quot;Избранное&quot;, выводится сообщение об ошибке" style="text;html=1;align=center;verticalAlign=middle;whiteSpace=wrap;rounded=0;" vertex="1" parent="1">
          <mxGeometry x="550" y="130" width="290" height="30" as="geometry" />
        </mxCell>
      </root>
    </mxGraphModel>
  </diagram>
</mxfile>
